<svg id="Image-Video_Icons" data-name="Image-Video Icons" xmlns="http://www.w3.org/2000/svg" viewBox="0 0 204 151.21"><defs><style>.cls-1{fill:none;}.cls-1,.cls-2{stroke:#000;stroke-linecap:round;stroke-linejoin:round;stroke-width:4px;}.cls-2{fill:#fff;}</style></defs><g id="Vector"><g id="Image_Icon" data-name="Image Icon"><rect class="cls-1" x="658.9" y="685.29" width="109.74" height="109.74" rx="16.68" transform="translate(-821.35 -454.16) rotate(-15.67)"/><circle class="cls-1" cx="39.46" cy="50.98" r="9.14"/><path class="cls-1" d="M771.45,742.64l-36.34-20.3a1.14,1.14,0,0,0-1.54.43l-45.73,80.9" transform="translate(-648 -674.39)"/></g><g id="Video_Icon" data-name="Video Icon"><path class="cls-2" d="M849.92,735c-.5-7-3.62-12.71-8.17-15.12-8.23-3.84-42.37-7.35-42.37-7.35s-34.14-3.51-43-1.13c-5,1.42-9.17,6.43-11.07,13.13a311.15,311.15,0,0,0-7.71,75c.64,6.74,3.77,12.25,8.23,14.54,8.2,4.13,42.34,7.64,42.34,7.64s34.14,3.51,43,1.13c5-1.42,9.17-6.43,11.07-13.13a308.75,308.75,0,0,0,7.68-74.7Z" transform="translate(-648 -674.39)"/><path class="cls-1" d="M783.48,782.21l25.22-11.1a2.75,2.75,0,0,0,.49-4.75l-22.44-16a2.56,2.56,0,0,0-4,1.83l-2.82,27.42A2.56,2.56,0,0,0,783.48,782.21Z" transform="translate(-648 -674.39)"/></g></g></svg>