<svg id="Image-Video_Icons" data-name="Image-Video Icons" xmlns="http://www.w3.org/2000/svg" viewBox="0 0 734 541.6"><defs><style>.cls-1{fill:none;}.cls-1,.cls-2{stroke:#000;stroke-linecap:round;stroke-linejoin:round;stroke-width:5px;}.cls-2{fill:#fff;}</style></defs><g id="Vector"><g id="Image_Icon" data-name="Image Icon"><rect class="cls-1" x="417.94" y="514.14" width="400" height="400" rx="60.79" transform="translate(-552.88 -285.81) rotate(-15.67)"/><circle class="cls-1" cx="139.04" cy="181.05" r="33.33"/><path class="cls-1" d="M828.19,723.19l-132.47-74a4.12,4.12,0,0,0-5.59,1.57L523.44,945.64" transform="translate(-383 -479.2)"/></g><g id="Video_Icon" data-name="Video Icon"><path class="cls-2" d="M1114.21,695.13c-1.82-25.32-13.19-46.33-29.8-55.09-30-14-154.42-26.79-154.42-26.79s-124.43-12.79-156.76-4.14c-18,5.19-33.45,23.45-40.37,47.87a1132.72,1132.72,0,0,0-28.09,273.33c2.34,24.57,13.72,44.67,30,53,29.9,15,154.32,27.82,154.32,27.82s124.43,12.79,156.76,4.15c18-5.2,33.45-23.46,40.37-47.87a1060.53,1060.53,0,0,0,22.21-134.27A1061.49,1061.49,0,0,0,1114.21,695.13Z" transform="translate(-383 -479.2)"/><path class="cls-1" d="M872,867.41,964,826.94a10,10,0,0,0,1.78-17.29L884,751.33a9.33,9.33,0,0,0-14.7,6.64L859,857.92A9.33,9.33,0,0,0,872,867.41Z" transform="translate(-383 -479.2)"/></g></g></svg>